<svg id="logo-ccs-homepage-white" xmlns="http://www.w3.org/2000/svg" width="71.972" height="59.936" viewBox="0 0 71.972 59.936">
  <path id="Path_3344" data-name="Path 3344" d="M0,.5H1.094V59.888H0Z" transform="translate(0 -0.251)" fill="#fff"/>
  <path id="Path_3345" data-name="Path 3345" d="M19.163,25.864a2.447,2.447,0,0,0-2.586-1.99c-2.189,0-3.134,1.84-3.134,3.73,0,2.139.945,3.88,3.134,3.88A2.644,2.644,0,0,0,19.262,28.8h1.243a3.793,3.793,0,0,1-4.029,3.73c-2.885,0-4.278-2.139-4.278-4.825s1.542-4.874,4.377-4.874a3.569,3.569,0,0,1,3.83,3.034Zm2.288-.2H22.5v1.393h.05a2.526,2.526,0,0,1,2.487-1.592V26.66c-1.791,0-2.437.995-2.437,2.736V32.38H21.5V25.665Zm6.914-.2c2.139,0,3.283,1.542,3.283,3.531a3.225,3.225,0,0,1-3.283,3.531c-2.139,0-3.283-1.542-3.283-3.531.05-1.99,1.194-3.531,3.283-3.531m0,6.068c1.144,0,2.089-.9,2.089-2.537s-.945-2.537-2.089-2.537-2.089.9-2.089,2.537.945,2.537,2.089,2.537m10.694.846H37.915l-1.393-5.372L35.129,32.38H33.935L31.8,25.665H33.04l1.492,5.471h.05l1.343-5.471h1.194l1.393,5.471h.05l1.492-5.471H41.2Zm2.885-6.715h1.045V26.71h.05a2.337,2.337,0,0,1,2.189-1.243c1.791,0,2.338.995,2.338,2.437V32.33H46.47V27.8a1.253,1.253,0,0,0-1.343-1.343,1.881,1.881,0,0,0-1.99,2.089v3.78H42.043V25.665ZM19.163,39.543a2.447,2.447,0,0,0-2.586-1.99c-2.189,0-3.134,1.84-3.134,3.73,0,2.139.945,3.88,3.134,3.88a2.644,2.644,0,0,0,2.686-2.686h1.243a3.793,3.793,0,0,1-4.029,3.73c-2.885,0-4.278-2.139-4.278-4.825s1.542-4.874,4.377-4.874a3.569,3.569,0,0,1,3.83,3.034Zm5.272-.4c2.139,0,3.283,1.542,3.283,3.531a3.225,3.225,0,0,1-3.283,3.531c-2.139,0-3.283-1.542-3.283-3.531s1.144-3.531,3.283-3.531m0,6.068c1.144,0,2.089-.9,2.089-2.537s-.945-2.537-2.089-2.537-2.089.9-2.089,2.537c0,1.592.945,2.537,2.089,2.537m4.278-5.919h1.045v.995h.05A2.5,2.5,0,0,1,32,39.145a1.8,1.8,0,0,1,1.84,1.144,2.508,2.508,0,0,1,2.089-1.144c1.343,0,2.238.547,2.238,1.94v4.924H37.069V41.582c0-.846-.2-1.492-1.293-1.492a1.632,1.632,0,0,0-1.741,1.691v4.178H32.941V41.532c0-.9-.249-1.492-1.243-1.492a1.813,1.813,0,0,0-1.791,1.691v4.178H28.812V39.294Zm10.744,0H40.5v.995h.05a2.5,2.5,0,0,1,2.189-1.144,1.8,1.8,0,0,1,1.84,1.144,2.508,2.508,0,0,1,2.089-1.144c1.343,0,2.238.547,2.238,1.94v4.924H47.813V41.582c0-.846-.2-1.492-1.293-1.492a1.632,1.632,0,0,0-1.741,1.691v4.178H43.684V41.532c0-.9-.249-1.492-1.243-1.492a1.813,1.813,0,0,0-1.791,1.691v4.178H39.556V39.294ZM55.97,43.87a2.691,2.691,0,0,1-2.885,2.288c-2.139,0-3.134-1.492-3.233-3.531a3.243,3.243,0,0,1,3.134-3.482c2.387,0,3.084,2.238,3.034,3.83H51.046a1.958,1.958,0,0,0,2.089,2.189,1.638,1.638,0,0,0,1.741-1.293Zm-1.045-1.84a1.932,1.932,0,0,0-1.94-1.89,1.966,1.966,0,0,0-1.94,1.89Zm2.039-2.736h1.045v1.393h.05a2.526,2.526,0,0,1,2.487-1.592v1.194c-1.791,0-2.437.995-2.437,2.736v2.984H57.014l-.05-6.715Zm8.6,2.139a1.542,1.542,0,0,0-1.641-1.343c-1.592,0-2.089,1.243-2.089,2.636,0,1.243.547,2.437,1.94,2.437a1.766,1.766,0,0,0,1.84-1.641h1.144a2.828,2.828,0,0,1-2.984,2.636c-2.039,0-3.134-1.442-3.134-3.432s1.045-3.581,3.183-3.581c1.542,0,2.736.7,2.885,2.338H65.569ZM68.852,38.1H67.758V36.757h1.094Zm-1.144,1.194H68.8v6.715H67.708Zm8.456,6.715a1.7,1.7,0,0,1-.8.2c-.547,0-.945-.3-.945-1.045a3.057,3.057,0,0,1-2.387,1.045c-1.243,0-2.238-.547-2.238-1.89,0-1.542,1.144-1.84,2.288-2.089,1.243-.249,2.238-.149,2.238-.995,0-.945-.8-1.094-1.492-1.094-.945,0-1.641.3-1.691,1.293H70.046c.05-1.641,1.343-2.238,2.835-2.238,1.194,0,2.537.249,2.537,1.84v3.482c0,.5,0,.746.348.746a.971.971,0,0,0,.348-.05l.05.8Zm-1.791-3.482a5.345,5.345,0,0,1-1.99.448c-.746.149-1.343.4-1.343,1.194,0,.746.647.995,1.293.995,1.442,0,2.039-.9,2.039-1.542V42.527Zm2.586-5.77h1.094v9.3H76.96ZM17.969,53.121a2.02,2.02,0,0,0-2.288-1.89c-1.045,0-2.089.4-2.089,1.592,0,1.144,1.492,1.293,2.984,1.641s2.984.846,2.984,2.686c0,1.99-1.94,2.785-3.631,2.785-2.089,0-3.83-.995-3.83-3.283h1.194c0,1.542,1.293,2.238,2.686,2.238,1.094,0,2.338-.348,2.338-1.691,0-1.293-1.492-1.492-2.984-1.84s-2.984-.746-2.984-2.437c0-1.89,1.691-2.736,3.382-2.736,1.89,0,3.333.9,3.432,2.935Zm8.356,4.427a2.691,2.691,0,0,1-2.885,2.288c-2.139,0-3.134-1.492-3.233-3.531a3.251,3.251,0,0,1,3.183-3.482c2.387,0,3.084,2.238,3.034,3.83H21.4a1.958,1.958,0,0,0,2.089,2.189,1.638,1.638,0,0,0,1.741-1.293Zm-1.094-1.89a1.932,1.932,0,0,0-1.94-1.89,1.966,1.966,0,0,0-1.94,1.89Zm2.089-2.736h1.045v1.393h.05A2.526,2.526,0,0,1,30.9,52.723v1.194c-1.791,0-2.437.995-2.437,2.736v2.984H27.37l-.05-6.715Zm7.511,6.765H33.637L31.15,52.922h1.243l1.89,5.621,1.84-5.621h1.144Zm4.278-7.958H38.014V50.386h1.094Zm-1.094,1.194h1.094v6.765H38.014Zm7.063,2.189a1.542,1.542,0,0,0-1.641-1.343c-1.592,0-2.089,1.243-2.089,2.636,0,1.243.547,2.437,1.94,2.437a1.766,1.766,0,0,0,1.84-1.641h1.144a2.828,2.828,0,0,1-2.984,2.636c-2.039,0-3.134-1.442-3.134-3.432s1.045-3.581,3.183-3.581c1.542,0,2.736.7,2.885,2.338H45.077Zm7.909,2.437A2.691,2.691,0,0,1,50.1,59.836c-2.139,0-3.134-1.492-3.233-3.531A3.243,3.243,0,0,1,50,52.823c2.387,0,3.084,2.238,3.034,3.83H48.061a1.958,1.958,0,0,0,2.089,2.189,1.638,1.638,0,0,0,1.741-1.293Zm-1.094-1.89a1.932,1.932,0,0,0-1.94-1.89,1.966,1.966,0,0,0-1.94,1.89ZM21.3,3.034c-.1.2-.2.3-.2.5,0,.149.2.249.249.448.05-.2.2-.3.2-.448,0-.2-.2-.4-.249-.5m2.736,0c.1.2.2.3.2.5,0,.149-.2.249-.249.448-.05-.2-.2-.3-.2-.448,0-.2.2-.4.249-.5m-4.278-.1a.214.214,0,0,0,.2-.2.2.2,0,0,0-.4,0,.214.214,0,0,0,.2.2m.1.249a.214.214,0,0,0-.2-.2c-.1,0-.149.1-.149.2a.214.214,0,0,0,.2.2.222.222,0,0,0,.149-.2m.1.448a.2.2,0,1,0-.2.2.214.214,0,0,0,.2-.2m.8-1.592a.214.214,0,0,0,.2-.2.2.2,0,1,0-.4,0,.214.214,0,0,0,.2.2m-.448.149a.214.214,0,0,0,.2-.2.2.2,0,1,0-.4,0,.214.214,0,0,0,.2.2m-.348.3a.214.214,0,0,0,.2-.2.2.2,0,0,0-.4,0,.214.214,0,0,0,.2.2m1.293-.4a.214.214,0,0,0,.2-.2.2.2,0,0,0-.4,0,.214.214,0,0,0,.2.2m.448.149a.214.214,0,0,0,.2-.2.2.2,0,0,0-.4,0,.214.214,0,0,0,.2.2m.448.2a.214.214,0,0,0,.2-.2.2.2,0,0,0-.4,0,.214.214,0,0,0,.2.2m3.283.3a.2.2,0,0,0,.4,0,.214.214,0,0,0-.2-.2.182.182,0,0,0-.2.2m.2.249c-.1,0-.149.1-.149.2a.2.2,0,0,0,.4,0c-.05-.1-.1-.2-.249-.2m-.05.448a.2.2,0,1,0,.2.2c-.05-.1-.1-.2-.2-.2m-.995-1.393a.214.214,0,0,0,.2-.2.2.2,0,0,0-.4,0,.214.214,0,0,0,.2.2m.448.149a.214.214,0,0,0,.2-.2.2.2,0,0,0-.4,0,.214.214,0,0,0,.2.2m.348.3a.214.214,0,0,0,.2-.2.2.2,0,0,0-.4,0c.05.1.1.2.2.2m-1.293-.4a.214.214,0,0,0,.2-.2.2.2,0,0,0-.4,0,.214.214,0,0,0,.2.2m-.448.149a.214.214,0,0,0,.2-.2.2.2,0,0,0-.4,0,.214.214,0,0,0,.2.2m-.6,0a.2.2,0,1,0,.4,0,.214.214,0,0,0-.2-.2.182.182,0,0,0-.2.2m-.7.995h.2v-.8c-.05,0-.149-.05-.2-.05Zm.647-.846a.3.3,0,0,1-.2.05v.8h.2Zm-.448-.9V1.045a.588.588,0,0,0-.448.448Zm.249,0h.448a.528.528,0,0,0-.448-.448Zm-.7.249a.583.583,0,0,0,.547.448.541.541,0,0,0,.547-.448Zm.9-.8a.507.507,0,0,1-.249-.4,1.083,1.083,0,0,1,.4.249V.2a.507.507,0,0,1-.4.249A.688.688,0,0,1,22.993,0h-.6a1.017,1.017,0,0,1,.249.448,1.083,1.083,0,0,1-.4-.249V.846a.507.507,0,0,1,.4-.249.507.507,0,0,1-.249.4h.6Zm0,13.231a.249.249,0,1,1,.249-.249.235.235,0,0,1-.249.249M21.9,13.827a.249.249,0,1,1,.249-.249.235.235,0,0,1-.249.249m-.348-1.094-.05-.05a.187.187,0,0,0-.3,0l-.149.149-.05.05v.05c.1.1.149.2.1.249l-.05.05a.541.541,0,0,1-.249-.05l-.05-.05-.05.05v.05a.049.049,0,0,1-.05.05c-.05.1-.1.149-.1.2v.05a.107.107,0,0,0,.1.1h.05a.377.377,0,0,0,.2.1.317.317,0,0,1-.3,0,.515.515,0,0,1-.249-.348.8.8,0,0,1,.2-.5v-.1c-.05.05-.05,0-.05-.05a.376.376,0,0,1,.2.05h.05a.728.728,0,0,1,.547-.3.43.43,0,0,1,.3.149.377.377,0,0,1,.1.2c-.1-.05-.149-.05-.149-.1m2.089.846a9.682,9.682,0,0,1-1.89-.7.565.565,0,0,0-.149-.4.632.632,0,0,0-.348-.2.376.376,0,0,0-.2.05l-.249-.249a2.438,2.438,0,0,1-.547-.995,1.532,1.532,0,0,1-.149-.647.606.606,0,0,1-.6.448c0-.05,0-.149-.05-.149a.472.472,0,0,1-.547.1,4.144,4.144,0,0,0,.2.746,4.353,4.353,0,0,0,.846,1.393,2.3,2.3,0,0,0,.348.348v.05a.662.662,0,0,0,.3.448.379.379,0,0,0,.448-.05,5.088,5.088,0,0,0,1.045.4,5.956,5.956,0,0,0,1.194.2,2.57,2.57,0,0,0,1.045-.348,2.759,2.759,0,0,0,.4-.3l.05-.05a2.3,2.3,0,0,1-1.144-.1m-.149,2.387c-.05-.1-.1-.1-.149-.1-.249,0-.149.647-.448.647a.222.222,0,0,1-.2-.149c0-.1.05-.1.05-.2a.1.1,0,1,0-.2,0c0,.05.05.1.05.2s-.05.149-.2.149c-.3,0-.2-.647-.448-.647-.05,0-.1.05-.149.1a.541.541,0,0,1-.05-.249A.266.266,0,0,1,22,15.469c.3,0,.249.448.4.448a.107.107,0,0,0,.1-.1c0-.1-.2-.249-.2-.4,0-.2.149-.3.348-.448.2.149.348.3.348.448,0,.2-.2.3-.2.4a.107.107,0,0,0,.1.1c.149,0,.1-.448.4-.448a.232.232,0,0,1,.249.249c.05.05,0,.149-.05.249m-.8.846a.149.149,0,1,1,.149-.149.159.159,0,0,1-.149.149m.6-1.492h-.1v-.7a3.715,3.715,0,0,1-.995-.149v.846h-.1a.392.392,0,0,0-.4.4.63.63,0,0,0,.2.448c.05-.1.1-.2.149-.2.1,0,.05.6.4.6v.1a.3.3,0,1,0,.6,0v-.1c.348,0,.3-.6.4-.6.05,0,.1.1.149.2a.63.63,0,0,0,.2-.448.591.591,0,0,0-.5-.4" transform="translate(-6.082)" fill="#fff"/>
  <path id="Path_3346" data-name="Path 3346" d="M33.358,19.633c0-.05-.05-.05-.1-.05-.8.249-1.84-.448-2.785-1.094a4.725,4.725,0,0,0-2.238-1.045,1.377,1.377,0,0,0-.647.149,1.161,1.161,0,0,0-.5.6,3.157,3.157,0,0,1-.348.6c-.1.2-.2.3-.2.448a.452.452,0,0,0,.149.348,1.736,1.736,0,0,0,.448.3.174.174,0,0,1,.1.05,2.946,2.946,0,0,1,.3.2,5.739,5.739,0,0,1-1.194.348,9.463,9.463,0,0,1-1.741.149,9.862,9.862,0,0,1-1.741-.149,5.739,5.739,0,0,1-1.194-.348c0-.149.1-.2.3-.249.05,0,.1-.05.149-.05a2.776,2.776,0,0,0,.4-.249.452.452,0,0,0,.149-.348.894.894,0,0,0-.2-.448,3.312,3.312,0,0,1-.3-.6,1.462,1.462,0,0,0-.5-.6,1.377,1.377,0,0,0-.647-.149,4.725,4.725,0,0,0-2.238,1.045c-.995.647-1.99,1.343-2.785,1.094-.05,0-.1,0-.1.05s0,.1.05.1a5.464,5.464,0,0,1,.7.448,1.408,1.408,0,0,0,.9.448,2.224,2.224,0,0,0,.995-.3,5.635,5.635,0,0,0,.995-.647,4.39,4.39,0,0,1,1.94-.945l-.2.2a.69.69,0,0,0-.348.6,1.219,1.219,0,0,0,.2.6c.05.05.05.149.1.249l.149.448a2.154,2.154,0,0,1,.05.249.866.866,0,0,0,.6.647,7.016,7.016,0,0,0,2.736.4,7.016,7.016,0,0,0,2.736-.4,1.1,1.1,0,0,0,.6-.647.541.541,0,0,0,.05-.249,1.581,1.581,0,0,1,.149-.448l.149-.3a1,1,0,0,0,.149-.547.69.69,0,0,0-.348-.6c-.05-.05-.149-.1-.2-.2a4.39,4.39,0,0,1,1.94.945c.348.2.647.448.995.647a2.224,2.224,0,0,0,.995.3,1.533,1.533,0,0,0,.9-.448,3.336,3.336,0,0,1,.7-.448c-.2-.05-.2-.1-.2-.1M24.7,13.316V10.282a1.862,1.862,0,0,1,.9.249,3.477,3.477,0,0,1,.846.647,2.438,2.438,0,0,1,.547.995,2.918,2.918,0,0,1,.2,1.144Zm-.1-4.327a3.077,3.077,0,0,0-1.791.5.474.474,0,0,1-.3-.348c0-.5,1.393-.547,2.089-.547s2.089.05,2.089.547c0,.149-.1.249-.3.348a3.077,3.077,0,0,0-1.791-.5m-.05,4.327H21.968a2.918,2.918,0,0,1,.2-1.144,6.372,6.372,0,0,1,.547-.995,2.564,2.564,0,0,1,.846-.647,2.264,2.264,0,0,1,.995-.249Zm3.929-.2a.7.7,0,0,1-.3-.348l-.547-1.094c-.05-.1-.1-.149-.1-.249a.258.258,0,0,1,.1-.2c.05-.05.1-.149.149-.2,0-.05.05-.05.05-.1a3.193,3.193,0,0,0-.5-.647,5.324,5.324,0,0,0-.8-.7.584.584,0,0,0,.3-.5.452.452,0,0,0-.149-.348,4.87,4.87,0,0,1,.7-1.442l-.5-.2a.678.678,0,0,1,.1.6.618.618,0,0,1-.3-.4,2.425,2.425,0,0,1-.2.547.665.665,0,0,1,.448-.05.61.61,0,0,1-.647.2c-.2.05-.4-.05-.4-.2a.182.182,0,0,1,.2-.2c.1,0,.1.2.1.249.149-.1.3-.5.05-.6-.2-.05-.348.2-.4.4-.05-.249-.149-.448-.3-.448-.249,0-.149.448-.1.6,0-.149.1-.249.149-.249s.149.05.149.2-.2.249-.448.249a.574.574,0,0,1-.647-.5.9.9,0,0,1,.448.3,1.643,1.643,0,0,1,0-.7.9.9,0,0,1-.448.3.79.79,0,0,1,.4-.5h-.945a.79.79,0,0,1,.4.5.532.532,0,0,1-.448-.3,1.643,1.643,0,0,1,0,.7.9.9,0,0,1,.448-.3.574.574,0,0,1-.647.5c-.249,0-.448-.1-.448-.249s.05-.2.149-.2c.05,0,.149.1.149.249.1-.1.149-.547-.1-.6-.2,0-.3.2-.3.448-.05-.2-.249-.448-.4-.4-.249.05-.1.5.05.6-.05-.1-.05-.249.1-.249a.214.214,0,0,1,.2.2c0,.149-.2.249-.348.3a.61.61,0,0,1-.647-.2.483.483,0,0,1,.448.05,2.424,2.424,0,0,1-.2-.547.618.618,0,0,1-.3.4.9.9,0,0,1,.1-.6l-.5.2a4.332,4.332,0,0,1,.7,1.442.452.452,0,0,0-.149.348.584.584,0,0,0,.3.5,3.482,3.482,0,0,0-.8.7,4.353,4.353,0,0,0-.846,1.393,4.484,4.484,0,0,1,.448.5.693.693,0,0,1,.2.448.577.577,0,0,0,.2.5.719.719,0,0,1,.1.348h2.586V16.4a.43.43,0,0,0-.3.149,8.811,8.811,0,0,0,.846.3c.05-.2.05-.3.149-.4,0,0-.4-.05-.6-.05V13.565h2.537a3.88,3.88,0,0,1-.2,1.094,6.372,6.372,0,0,1-.547.995,2.564,2.564,0,0,1-.846.647c-.05,0-.05.05-.1.1a1.087,1.087,0,0,0-.149.249.448.448,0,0,0-.05.249c.1.05.2.05.3.1.9.2,1.094.149,1.144.1a2.85,2.85,0,0,0,.547-.547,4.972,4.972,0,0,0,.846-1.393,4.843,4.843,0,0,0,.3-1.691,1.12,1.12,0,0,0,.05-.348" transform="translate(-7.991 -3.468)" fill="#fff"/>
  <path id="Path_3347" data-name="Path 3347" d="M35.194,15.245l-.05.05c0,.05.05.05.1.05-.05,0-.05.05-.05.1.05,0,.1,0,.1-.05,0,.05,0,.05.05.1h.05a3.263,3.263,0,0,1,.4,1.045.174.174,0,0,0-.1-.05c0,.05,0,.1.05.1h-.647c0-.05,0-.05-.05-.1-.05,0-.05,0-.1.05,0-.05,0-.1-.05-.1a.154.154,0,0,0-.05.1c-.05-.05-.05-.05-.1-.05s-.05.05-.05.1h-.547c0-.05.05-.05.05-.1-.05,0-.1,0-.1.05v-.9c.05,0,.1,0,.1-.05s0-.05-.05-.1c.05,0,.1,0,.1-.05-.05-.05-.05-.05-.1-.05.05-.05.05-.05.05-.1s-.05-.05-.1-.05V14.5a.174.174,0,0,0,.1.05c0-.05,0-.1-.05-.1a2.323,2.323,0,0,1,.5.249,2.837,2.837,0,0,1,.547.547m.746,1.293c.05.05.05.1-.05.1a3.181,3.181,0,0,0-.5-1.293c.05,0,.1-.05.1-.149a.218.218,0,0,0-.149.05l-.05-.05a1.721,1.721,0,0,0-.547-.5,3.343,3.343,0,0,0-.6-.3c0-.05.05-.05.1,0,0-.1-.05-.1-.1-.1l-.05.05c0-.05-.05-.05-.1-.05,0,.05,0,.1.05.1-.05,0-.05,0-.05.05s0,.1.1.1c-.05-.05,0-.1.05-.1v.995a.183.183,0,0,0-.149.05.183.183,0,0,0,.149.05v1.094c-.05,0-.05-.05,0-.1-.1,0-.1.05-.1.1a.174.174,0,0,0,.1.05c0,.05-.05.05-.05.1.05,0,.1,0,.1-.05,0,.05,0,.05.05.1.05,0,.1,0,.1-.1-.05.05-.1.05-.1,0h.746a.083.083,0,1,0,.1,0h.846c0,.05-.05.05-.1.05a.1.1,0,0,0,.1.1c.05,0,.05-.05.05-.1.05,0,.05.05.1.05,0-.05,0-.1-.05-.1.05,0,.05,0,.1-.05-.1-.1-.149-.149-.2-.149" transform="translate(-17.089 -7.187)" fill="#fff"/>
  <path id="Path_3348" data-name="Path 3348" d="M23.976,9.957a.049.049,0,0,0,.05-.05h-.05s.05,0,0-.05-.05-.05-.1,0a.178.178,0,0,1-.249-.149.049.049,0,0,0,.05.05h.1c.05,0,.05-.05.1-.1,0-.1-.05-.1-.149-.2-.05-.05-.05-.05-.1-.05-.05-.05,0-.1-.1-.2v-.1a.24.24,0,0,0,.05.3c.1.1.249.2.249.249a.049.049,0,0,1-.05.05h-.1l-.05-.05a1.085,1.085,0,0,1-.2-.249c-.1-.1-.05-.2-.05-.3.05-.1-.05-.249-.1-.3v-.1h-.05c0-.05,0-.05-.05-.05a.049.049,0,0,1-.05-.05l-.05.05h-.1c-.05,0-.05,0-.05.05a.049.049,0,0,0,.05.05l.05.05v-.05h.05v.05h-.05v.05s0,.05.05,0h.1c0,.1-.1.1-.149.2a.049.049,0,0,1-.05-.05c0-.05-.05-.05-.1-.1a.174.174,0,0,0-.1-.05c-.05,0-.05-.05-.05-.1V8.614l-.05-.05v.1a.049.049,0,0,0-.05-.05s-.05-.05-.05,0a.049.049,0,0,0,.05.05h-.05c-.05.05,0,.05,0,.05,0,.05-.05,0-.05-.05-.05.05,0,.1.05.1v.05a.049.049,0,0,0,.05.05v.05c0,.05.05.149.2.2-.05.05-.1.1-.149.1-.05.05-.05.05-.1.05l-.05-.05h-.05s0,.05.05,0h-.05c-.05,0-.05-.05-.05,0,0,0-.05.05,0,.05v-.05s.05.05.05,0c0,.05-.05.05,0,.05a.049.049,0,0,0,.05.05.049.049,0,0,1-.05-.05v-.05s0,.05.05,0v-.05c.05,0,.05-.05.1,0a.049.049,0,0,1,.05-.05h.05a.049.049,0,0,1,.05-.05c0,.149.2.149.249.249a.3.3,0,0,0-.2-.05c-.05,0-.149.05-.149.1s.05.149.1.149h-.149c-.05,0-.05-.1-.1-.05l-.05.05h.05a.05.05,0,0,0,0,.1s.05.05.05,0h-.05s0,.05.05,0h.05s0-.05.05,0l.05-.05h.05c.05-.05,0-.05,0-.05,0-.05-.05-.05-.05-.1,0-.1.1-.1.149-.1,0,.05.1.2.2.2.05.05.1-.05.149-.05v.1h-.1a.049.049,0,0,0-.05.05h.05c0,.05.05.05.05,0,0,0-.05.05,0,.05a.049.049,0,0,0,.05.05v-.05a.049.049,0,0,1,.05-.05v.05s.05.05.05,0h-.05a.049.049,0,0,0-.05-.05.049.049,0,0,0,.05-.05l.05-.05c.647.5.647.5.647.448ZM21.589,11.4c-.1,0-.149,0-.149.05a.107.107,0,0,0,.1.1h.05v.05c0,.1-.05.2-.05.348l-.4-.547c.2-.05.348-.149.4-.149s.1,0,.05.149m-.149.945-.6-.9c.05,0,.149-.05.2-.05l.448.647a.631.631,0,0,1-.05.3m-.05.4L20.544,11.5h.249l.7.995a.84.84,0,0,0-.1.249M20.4,11.5l.945,1.343A1.279,1.279,0,0,1,20.4,11.5m1.442-.1q-.075-.3-.3-.3a4.513,4.513,0,0,1-.8.2,1.9,1.9,0,0,1-.5-.149l-.05.1a.1.1,0,1,0-.1.1c.05,0,.05,0,.1-.05l-.05.1h.05a1.661,1.661,0,0,0,1.144,1.592c.1-.05.249,0,.249.1s-.05.1-.1.1a.174.174,0,0,1-.1-.05c0-.05.1,0,.1-.05s0-.05-.05-.05a.159.159,0,0,0-.149.149c0,.1.1.149.2.149a.232.232,0,0,0,.249-.249c.05,0,.1,0,.1-.05v-.1h-.05l.05-1.343h.05c.05,0,.1,0,.1-.05-.1-.1-.1-.149-.149-.149m-.7-2.885c.05-.05.05-.05,0-.05h.05l-.05.05h0c.05.05,0,.05,0,0h0m.05-.1h0c-.05,0-.05,0-.05-.05l.05.05m.05,0h.05c-.05.05,0,.05-.05,0h0m.4.249c.2,0,.3-.05.3-.1,0-.2-.5-.1-.5-.2a.049.049,0,0,1,.05-.05c.249,0,.249-.2.448-.249-.2-.05-.249.149-.348.149.05,0,.05-.1.05-.1-.05.05-.149.05-.2.149v.05a.049.049,0,0,0-.05.05c0,.2.5.05.5.2a2.092,2.092,0,0,1-.249.1.492.492,0,0,0-.4-.05c0-.05.05-.1.05-.149a.049.049,0,0,0,.05-.05h-.05v-.1l-.05-.05h-.2v.05l-.05.05c0,.05,0,.05-.05.05,0,.05,0,.1-.05.1l-.05-.05c-.05,0-.05-.05,0-.05v-.05l-.05-.05v.1a.049.049,0,0,0-.05-.05s0-.05-.05,0a.049.049,0,0,0,.05.05h-.05v.05c-.05,0-.05.05,0,.05,0,.05-.05.05-.05,0-.05.05,0,.1.05.05v.05a.049.049,0,0,0,.05.05.174.174,0,0,0-.1.05h-.1c-.05,0-.1.05-.1,0v-.05h0l.05.05h-.05s0-.05-.05,0a.049.049,0,0,0-.05.05s0,.05.05,0c0,0-.05.05,0,.05,0,.05,0,.05.05.05v-.1a.05.05,0,1,0,.1,0v.1a.049.049,0,0,0,.05-.05h.05v.1c0-.05.05-.05.1-.05a.049.049,0,0,0,.05-.05h.1v.05a.174.174,0,0,0,.1-.05c.1,0-.05-.1.149-.1h.05v.1c-.05.05-.05-.05-.1-.05a.049.049,0,0,0-.05.05h.05a.049.049,0,0,0-.05.05s0,.05.05,0c0,0,0,.05.05,0h0c.05,0,0-.05.05-.05h.05V8.664h.1c.05,0,0,0,.05-.05h.1v.05h-.05a.049.049,0,0,0-.05.05h.05c0,.05.05.05.05,0,0,0-.05.05,0,.05s0-.05.05-.05v.05h.05v-.05a.049.049,0,0,0,.05-.05h0a.049.049,0,0,0,.05-.05v-.05s-.05.05-.05,0h-.05c.2.149.149.1.05.1m-.945.647c.05-.05.05-.05,0-.05l.05.05h-.05v.1c.05-.05,0-.05,0-.1h0m.05-.149h0c-.05,0-.05,0-.05-.05a.049.049,0,0,0,.05.05m.05.05a.049.049,0,0,1,.05.05c0-.05,0,0-.05-.05h0m1.144.149c0-.05-.05-.1-.249-.1s-.6.05-.6-.05c0-.05.1-.05.2-.05h.05c.249.05.5-.05.647,0-.149-.149-.3,0-.5-.05a.218.218,0,0,0,.149-.05c-.1.05-.249-.05-.348.05-.149,0-.249,0-.249.1,0,.2.5.1.647.1s.2,0,.2.05-.149.05-.249.05a3.73,3.73,0,0,0-.746,0,.174.174,0,0,1,.05-.1l.05-.05h-.05v-.1a.049.049,0,0,1-.05-.05h-.2v.05l-.05.05a.049.049,0,0,1-.05.05.049.049,0,0,0,.05.05v.05h-.05a.174.174,0,0,0-.1-.05.049.049,0,0,1-.05-.05V9.112l-.05-.05v.1a.049.049,0,0,0-.05-.05s0-.05-.05,0a.049.049,0,0,0,.05.05H20.3c-.05.05-.05.05,0,.05,0,.05-.05.05-.05,0-.05.05,0,.1.05.05v.05l.05.05c.05,0,.05.05.1.05,0,.05.05.1,0,.1H20.3c-.05,0-.1.05-.149,0V9.46H20.1a.049.049,0,0,0,.05.05H20.1a.049.049,0,0,0-.05-.05L20,9.51h.05c0,.05,0,.05.05,0,0,0-.05.05,0,.05a.049.049,0,0,0,.05.05v-.05c.05,0,0-.05.05-.05a.05.05,0,1,0,.1,0v.1a.049.049,0,0,0,.05-.05h.05v.1c0-.1.05-.05.1-.1v.05c.05,0,.149-.05.149-.1h.05c.149,0,.05-.149.3-.1a.049.049,0,0,0,.05-.05v.1a.049.049,0,0,1,.05.05h-.05c-.05.05-.05-.1-.1-.05l-.05.05h.05a.05.05,0,0,0,0,.1s.05.05.05,0h-.05s0,.05.05,0c.05,0,0-.05.05-.05h.1a.154.154,0,0,0-.05-.1V9.41c.05,0,.05.05.1.05.1,0,.1,0,.149-.05h.1v.05h-.1a.049.049,0,0,0-.05.05h.05c0,.05.05.05.05,0,0,0-.05.05,0,.05a.049.049,0,0,0,.05.05v-.05a.049.049,0,0,1,.05-.05v.05s.05.05.05,0a.049.049,0,0,0-.05-.05.049.049,0,0,0,.05-.05V9.41h.05c-.05,0,0-.05-.05-.05v-.05s-.05.05-.05,0h-.249c.5.149.7.1.7.05m-1.492.746h0c.05-.05.05-.05,0-.05l.05.05c.05-.05.05-.05-.05,0h.05v.05l-.05-.05h0m.1-.149c0,.05-.05.05,0,0-.05,0-.05,0-.05-.05a.049.049,0,0,0,.05.05m.05.05a.049.049,0,0,1,.05.05c-.05,0-.05,0-.05-.05h0m1.243.149c0-.05-.05-.1-.249-.1-.149,0-.7.05-.7-.05,0-.05.2-.05.3-.05h.05c.2.05.448-.1.6-.05-.149-.1-.3,0-.448,0,.1,0,.2,0,.2-.05-.1.05-.3-.05-.4,0-.149,0-.348,0-.348.1,0,.149.6.05.746.05s.2,0,.2.05-.149.05-.249.05a5.957,5.957,0,0,0-.945,0c0-.05.05-.1.05-.149l.05-.05h-.05v-.1a.049.049,0,0,1-.05-.05h-.2v.05l-.05.05c0,.05,0,.05-.05.05v.05h-.1c-.05,0-.05-.05-.1-.05a.049.049,0,0,1-.05-.05V9.709L20,9.659v.1a.049.049,0,0,0-.05-.05s-.05-.05-.05,0a.049.049,0,0,0,.05.05H19.9v.05c-.05.05,0,.05,0,.05,0,.05-.05.05-.05,0-.05.05.05.1.1.05v.05l.1.1h.05v.05h-.149c-.05,0-.1.05-.149,0v-.05h-.05a.049.049,0,0,0,.05.05h-.05s0-.05-.05,0l-.05.05h.05c0,.05,0,.05.05,0,0,0-.05.05,0,.05a.049.049,0,0,0,.05.05v-.05a.049.049,0,0,1,.05-.05.05.05,0,0,0,.1,0v.1a.049.049,0,0,0,.05-.05h.05v.1c0-.1.1-.05.149-.05v.05h.05l.1-.05h.05a.049.049,0,0,0,.05-.05c.3.05.1-.1.448-.1h.05v.1c-.05.05-.05-.1-.1-.05l-.05.05h.05a.049.049,0,0,0-.05.05s0,.05.05,0c0,0,.05.05.05,0h0c.05,0,0-.05.05-.05h.1a.154.154,0,0,0-.05-.1v-.05c.05,0,.05.05.1.05.1,0,.1,0,.149-.05h.1v.05h-.05a.049.049,0,0,0-.05.05h.05c0,.05.05.05.05,0,0,0-.05.05,0,.05a.049.049,0,0,0,.05.05v-.05a.049.049,0,0,1,.05-.05v.05s0,.05.05,0v-.05a.049.049,0,0,0,.05-.05v-.05h.05c-.05,0,0,0-.05-.05v-.05s-.05.05-.05,0h-.249c.4.249.6.249.6.2m1.094.945h0C22.882,11.151,22.882,11.1,22.932,11.1Zm0,.149h0c.05-.05.05-.05,0-.05v.05h0v.1c.05-.05.05-.05,0-.1h0m.05-.149h0c-.05,0-.05,0-.05-.05l.05.05m.05.05a.049.049,0,0,1,.05.05l-.05-.05h0m1.243.3V11.4s-.05.05-.05,0h-.249c.1,0,.3,0,.3-.1,0-.05-.05-.1-.249-.1-.149,0-.7.05-.7-.05,0-.05.2-.05.3-.05h.05c.2.05.5-.1.6-.05-.2-.05-.3.05-.448,0,.1,0,.2,0,.2-.05-.1.05-.3-.05-.4,0-.149,0-.348,0-.348.05,0,.149.6.05.746.05s.2,0,.2.05-.149.05-.249.05a2.993,2.993,0,0,0-.945,0c0-.05.05-.1.05-.149a.049.049,0,0,0,.05-.05h-.05v-.1a.049.049,0,0,1-.05-.05h-.2v.05l-.05.05c0,.05,0,.05-.05.05l.05.05v.05h-.149c-.05,0-.05-.05-.1-.05a.049.049,0,0,1-.05-.05v-.149l-.05-.05v.1a.049.049,0,0,0-.05-.05s0-.05-.05,0a.049.049,0,0,0,.05.05h-.05v.05c-.05.05,0,.05,0,.05,0,.05-.05.05-.05,0-.05.05.05.1.05.05v.05l.1.1a.049.049,0,0,0,.05-.05v.05a.049.049,0,0,0,.05.05h-.1c-.05,0-.1.05-.149,0V11.2h-.05a.049.049,0,0,0,.05.05h-.05s0-.05-.05,0l-.05.05h.05c0,.05,0,.05.05,0,0,0-.05.05,0,.05a.049.049,0,0,0,.05.05v-.05c.05,0,0-.05.05-.05a.05.05,0,1,0,.1,0v.1a.049.049,0,0,0,.05-.05h.05v.1c0-.1.05-.05.1-.1v.05l.1-.05h.05a.049.049,0,0,0,.05-.05c.3.05.1-.1.448-.1l.05-.05v.1c-.05.05-.05-.1-.1-.05l-.05.05h.05a.049.049,0,0,0-.05.05s0,.05.05,0c0,0,.05.05.05,0h0c.05,0,0-.05.05-.05h.1a.154.154,0,0,0-.05-.1V11.1c.05,0,.05.05.1.05.1,0,.1,0,.149-.05a.069.069,0,0,1,.1,0v.05h-.05a.049.049,0,0,0-.05.05h.05c0,.05.05.05.05,0,0,0-.05.05,0,.05s0-.05.05-.05v.05s0,.05.05,0V11.2a.049.049,0,0,0,.05-.05c.4.348.448.4.4.3h0m-1.243.5c0-.05.05,0,0,0h0m0,.05h0c-.05-.05-.05,0,0,0h0l-.05.05s0,.05-.05,0v-.1l.1.05h0m-.05-.1h0c-.05,0-.05,0-.05-.05l.05.05m.547,0h0c.249.1.5-.05.6-.05-.149-.05-.249.05-.448,0,.1,0,.2,0,.2-.05-.05.1-.249,0-.348.1h0c-.1-.05-.2-.05-.2.05,0,.149.448.05.6.05s.1,0,.1.05-.149.05-.249.05a3.222,3.222,0,0,0-.7,0,.174.174,0,0,1,.05-.1.049.049,0,0,0,.05-.05h-.05v-.1l-.05-.05h-.2v.05l-.05.05c0,.05,0,.05-.05.05V12h-.1a.049.049,0,0,1-.05-.05V11.8l-.05-.05v.1a.049.049,0,0,0-.05-.05s0-.05-.05,0a.049.049,0,0,0,.05.05h-.05v.05c-.05,0,0,.05,0,.05,0,.05-.05.05-.05,0-.05.05.05.1.05.05v.05h.1v.1h-.1c-.05,0-.1.05-.149,0V12.1h0a.049.049,0,0,0,.05.05h-.05s0-.05-.05,0l-.05.05h.05c0,.05,0,.05.05,0,0,0-.05.05,0,.05a.049.049,0,0,0,.05.05v-.05a.049.049,0,0,1,.05-.05.05.05,0,1,0,.1,0v.1a.049.049,0,0,0,.05-.05h.05v.1c0-.05.05-.05.1-.1.05.05.1-.05.1-.05a.049.049,0,0,0,.05-.05c.149,0,.05-.1.249-.1h.05v.1c-.05.05-.05-.05-.1-.05a.049.049,0,0,0-.05.05h.05a.049.049,0,0,0-.05.05s0,.05.05,0c0,0,.05.05.05,0h0c.05,0,0-.05.05-.05h.1a.154.154,0,0,0-.05-.1V12c.05,0,.05.05.1.05a.183.183,0,0,0,.149-.05h.1v.05h-.05a.049.049,0,0,0-.05.05h.05c0,.05,0,.05.05,0l-.05.05a.049.049,0,0,1,.05-.05v.05h.05V12.1a.049.049,0,0,0,.05-.05V12h.05c-.05,0,0,0,0-.05V11.9s-.05.05-.05,0h-.249c.1,0,.3,0,.3-.1,0-.05,0-.1-.149-.1s-.547.05-.547-.05c.3.249.4.249.5.249m-.7.9h0c.05-.05.05-.05,0-.05h.05c.05,0,0,0-.05.05h0m.1-.149h0c-.05,0-.05,0-.05-.05,0,.05,0,.05.05.05m0,.05h0c.05,0,.05.05,0,0h0m.4-.05c0,.05.05.05,0,0,.249.1.5-.05.6-.05-.149-.05-.249.05-.448,0,.1,0,.2,0,.2-.05-.05.1-.249,0-.348.1h0c-.05,0-.1,0-.1.05,0,.149.547.05.547.1s-.1.05-.249.05a1.932,1.932,0,0,0-.547,0c0-.05.05-.1.05-.149a.049.049,0,0,0,.05-.05h-.05v-.1l-.05-.05h-.2v.05l-.05.05c0,.05,0,.05-.05.05v.149c-.05-.05-.1-.1-.1-.149a.049.049,0,0,1-.05-.05v-.149l-.05-.05v.1a.049.049,0,0,0-.05-.05s0-.05-.05,0a.049.049,0,0,0,.05.05h-.05v.1c0,.05-.05.05-.05,0,.149.249.2.3.249.249v.05a.154.154,0,0,0,.05.1c0,.05.05.05.1.05,0,.05.05.05,0,.05h-.2v-.05h0l.05.05s0-.05-.05,0a.049.049,0,0,0-.05.05s0,.05.05,0c0,0-.05.05,0,.05,0,.05,0,.05.05.05v-.1a.049.049,0,0,0,.05.05c.05,0,.05,0,.05-.05v.1a.049.049,0,0,0,.05-.05h.05v.1c0-.05.05-.05.1-.05a.049.049,0,0,0,.05-.05.174.174,0,0,0,.05-.1c.05,0,.1-.05.149-.05v.1c0,.05.05.05.05.1h-.05c-.05.05-.05-.05-.1-.05a.049.049,0,0,0-.05.05h.05a.049.049,0,0,0-.05.05s0,.05.05,0c0,0,0,.05.05,0h0c.05,0,0-.05.05-.05h.05v-.1a.246.246,0,0,0-.05-.149c.05,0,.149.05.2,0a.174.174,0,0,1,.1.05.05.05,0,1,1-.1,0h-.05v.05h.05a.049.049,0,0,0-.05.05v.05c.05,0,0-.05.05-.05h.05v-.05h.05v-.05h.05a.049.049,0,0,1-.05-.05.049.049,0,0,0,.05-.05c-.05-.05-.1-.05-.1-.1h.05c.2,0,.3-.05.3-.1,0-.1-.547,0-.547-.1.1.05.1.05.149,0m-8.854-9.5a.149.149,0,1,0-.149.149.132.132,0,0,0,.149-.149m-.05-.348a.149.149,0,1,0-.149.149.159.159,0,0,0,.149-.149m.1-.149a.159.159,0,0,0,.149-.149c0-.05-.1-.1-.149-.1a.159.159,0,0,0-.149.149c0,.05.1.1.149.1m.348-.05a.149.149,0,1,0-.149-.149.159.159,0,0,0,.149.149m1.492-.249a.141.141,0,0,0,.2-.2.151.151,0,0,0-.2,0c-.05.1-.05.149,0,.2m0-.249a.141.141,0,1,0-.2,0,.151.151,0,0,0,.2,0m-.348-.05a.141.141,0,1,0-.2,0,.151.151,0,0,0,.2,0m-.3.2a.141.141,0,1,0-.2,0,.151.151,0,0,0,.2,0m-.846-.2.1.249.149-.149v.3a.149.149,0,1,0,.3,0c0-.05-.05-.1-.1-.149s-.149-.1-.2-.149h.249l-.05-.249-.149.149V1.8l-.249.1.149.2Zm1.492.448a.3.3,0,0,1,.05.2q-.075,0-.149-.149l.05.3c.05-.05.05-.1.1-.1,0,.2-.1.3-.149.3-.1,0-.149-.05-.149-.1,0-.1.05-.149.149-.05,0-.2-.149-.2-.2-.1a.26.26,0,0,0-.1-.4.3.3,0,0,0,.05.4c-.1-.05-.249.05-.1.2a.075.075,0,1,1,.149,0,.254.254,0,0,1-.2.249.22.22,0,0,1-.3-.149c.05-.05.149,0,.249.05l-.1-.3c-.05.05-.1.05-.149.1a1.012,1.012,0,0,1,.05-.249l-.348.149s.149.1.249.149a.226.226,0,0,1-.249,0l.149.3c.05-.149.1-.2.149-.2-.05.05,0,.2-.149.3-.1.05-.249.05-.3-.05s0-.2.1-.1c0-.2-.149-.149-.2-.05,0-.2-.05-.3-.249-.348-.05.2,0,.3.2.348-.1,0-.2.1-.05.2,0-.1.1-.149.149-.05a.123.123,0,0,1-.05.2c-.05.05-.2.05-.3-.1h.149l-.2-.249v.2c-.05-.05-.05-.1-.05-.2l-.149.149a1.529,1.529,0,0,1,.5.5,5.938,5.938,0,0,1,.8-.4,5.722,5.722,0,0,1,.846-.3,1.571,1.571,0,0,1,0-.7Zm.448,1.741a.38.38,0,0,1-.547-.2,3.429,3.429,0,0,0,.746-.348c-.2.3-.05.448-.2.547m-.05,1.94a.319.319,0,0,1-.448-.249c-.05-.149-.1-.249-.05-.3.1-.1.149-.2.05-.3-.05-.149-.249-.1-.4-.05.1-.149.1-.249,0-.249-.149,0-.149.2-.2.2s-.05-.149-.05-.2c0-.1.05-.1.149-.149l.7-.3c.1-.05.149-.05.2,0s.149.1.1.149-.2-.1-.3,0c-.1.05,0,.149.149.2-.149.1-.3.149-.249.3a.36.36,0,0,0,.3.2c.1,0,.149.1.2.249.1.1.1.348-.149.5M15.471,4.784c-.2,0-.2-.149-.5-.249a4.889,4.889,0,0,0,.8-.249.5.5,0,0,1-.3.5M19.3,10.9c.05-.149-.2-.3-.249-.5s0-.4-.249-.647A16.559,16.559,0,0,1,17.56,8.366a.371.371,0,0,1,.348.1l.4.4a3.433,3.433,0,0,1,.846-1.343l.149-.149c-.149.05-.348.05-.448.149,0-.249,0-.4-.149-.547.05-.348,0-.7-.746-1.194.348.1.6.448.9.149-.249,0-.249-.547-1.194-1.045.348,0,.647.547,1.045.249-.4-.05-.5-.746-1.194-.945.249.05.5.149.7-.149-.249.05-.4-.149-.647-.2a.823.823,0,0,0-.05-.7.639.639,0,0,0-.5.2c0-.149-.2-.2-.348-.149,0,.05.05.2-.05.2a6.369,6.369,0,0,0-.846.249,2.81,2.81,0,0,0-.8.448c-.05.05-.1-.05-.149-.1-.1.1-.2.2-.149.348a.829.829,0,0,0-.547.2.563.563,0,0,0,.448.5c-.448.348-.05.746-.448,1.144.547,0,.448-.7.7-.846-.05.5-.3.6-.3,1.194,0,.3.2.647,0,.846.448-.1.348-1.094.6-1.393a.86.86,0,0,1-.05.5c-.149.448,0,1.094-.249,1.293.448-.05.5-.8.9-1.045A17.845,17.845,0,0,1,14.576,9.46c-.8,1.045-1.243,2.288-1.94,2.288a.537.537,0,0,1-.547-.6c0-1.194,2.039-1.99,2.039-3.283a.773.773,0,0,0-.746-.8,1.171,1.171,0,0,0-.647.249.448.448,0,0,0-.249-.05c-.7,0-.547,1.293-1.144,1.293.249.149.7-.149.945-.5-.1.846-1.293.6-1.194,1.641.149-.8,2.089-.7,2.089-1.89a.452.452,0,0,0-.149-.348.794.794,0,0,1,.4-.149.433.433,0,0,1,.448.5c0,1.045-2.039,1.94-2.039,3.233a1,1,0,0,0,.149.547.312.312,0,0,1-.4-.1.52.52,0,0,0,.746.4c.05,0,.149.05.2.05a.576.576,0,0,1-.547.3c.5.4,1.343-.1,1.293-.547a7.117,7.117,0,0,0,.945-1.194c0,.1-.05.149-.05.249a4.611,4.611,0,0,0-.647,1.691c-.05.6-.348,1.094-.746,1.094-.1,0-.249-.1-.3-.05-.149.1,0,.2,0,.348s-.3.348-.3.846c0,.249.149.5.1.647.149-.05.3-.3.4-.547.149.7-.3.647,0,1.243.05-.2.249-.3.348-.2s.05.149-.05.249-.149.547.249.5c-.1-.05-.1-.149.1-.2.3-.05.348.05.647.05.2,0,.249-.249.4-.249s.149.1.1.2a.32.32,0,0,0,.3-.348c0-.149-.1-.2-.05-.249.1-.05.348,0,.249.249.149,0,.2-.149.2-.3s-.2-.249-.4-.249c.1-.1-.1-.149-.249-.149-.348,0-.3.249-.5.249-.348,0-.7-.5-.7-1.293,0-.448.448-.547.8-.7a2.9,2.9,0,0,0,1.243-1.045A2.608,2.608,0,0,0,15.62,11a.948.948,0,0,1,.5.9.528.528,0,0,1-.348.547c-.1.05-.149.05-.2.1,0,.1.05.149.1.149.149.1.149.249.2.4a1.518,1.518,0,0,0,.448.647,1.63,1.63,0,0,0,0-.5c.348.149.05.9.746.9-.149-.05-.1-.249,0-.3.05-.05.149.05.3.249s.1.149.4.149.2-.1.348-.1.149.2.05.348c.3-.1.4-.3.3-.547.249-.149.4.05.448.2a.362.362,0,0,0-.2-.6.214.214,0,0,0-.2-.2h-.3c-.1,0-.2.2-.3.2a1.94,1.94,0,0,1-1.293-1.094c0-.348.8-.547.8-1.045,0-.7-.647-.9-1.243-1.343a.969.969,0,0,1,1.094-.1c.05-.2.149-.149.2-.448.1.3,0,.547.1.647.1-.149.348-.1.3-.5.05.2-.1.547.05.7.05-.2.149-.2.2-.2a.159.159,0,0,1,.149.149c0,.249-.348.149-.348.448,0,.149.149.149.149.249a.182.182,0,0,1-.3.1.336.336,0,0,0,.3.2.374.374,0,0,0,.348-.249.345.345,0,0,1-.1.448c.149.05.5,0,.448-.448.2.05.3.149.2.4.149-.05.3-.1.3-.3.1-.05,0-.05.05-.249m13.081,3.283a.448.448,0,1,1,.448.448.525.525,0,0,1-.448-.448m-.149,0a.565.565,0,0,0,.6.547.547.547,0,1,0,0-1.094.513.513,0,0,0-.6.547m-1.89.995c-.149-.05-.3-.149-.249-.249a.107.107,0,0,1,.1-.1.373.373,0,0,1,.249-.05c.149.05.249.149.249.249v.05c0,.1-.149.149-.348.1m-.249-.5a.267.267,0,0,0-.149.2.365.365,0,0,0,.1.3.3.3,0,0,0,.3.149c.1,0,.249,0,.3-.05a.5.5,0,0,0,.2-.249c.05-.2-.149-.4-.4-.448a.922.922,0,0,0-.348.1m-3.183-7.66a.377.377,0,0,1,.1-.2c.05-.05.149-.1.2-.05.05,0,.1,0,.1.05a.154.154,0,0,1,.05.1.377.377,0,0,1-.1.2.24.24,0,0,1-.348,0c.05-.05,0-.05,0-.1m.05-.348c-.2.149-.249.348-.1.5a.386.386,0,0,0,.547,0,1.041,1.041,0,0,0,.2-.3.448.448,0,0,0-.05-.249.258.258,0,0,0-.2-.1A1.684,1.684,0,0,0,26.961,6.674Zm2.686,7.71c-.05,0-.1-.05-.149-.05a.361.361,0,0,1,0-.5c.05-.05.05-.05.149-.05s.2.149.2.3a.38.38,0,0,1-.1.249c0,.05-.05.05-.1.05m-.2-.647a.481.481,0,0,0,0,.7.38.38,0,0,0,.249.1c.1,0,.149-.05.249-.1a.452.452,0,0,0,.149-.348.533.533,0,0,0-.1-.3.274.274,0,0,0-.249-.149.42.42,0,0,0-.3.1M26.762,9.709a.283.283,0,0,1-.2-.348.107.107,0,0,1,.1-.1c.1-.05.149,0,.249,0a.388.388,0,0,1,.2.2v.149c-.05.05-.05.1-.1.1-.05.05-.149,0-.249,0m-.1-.6a.687.687,0,0,0-.2.149c-.1.2,0,.4.249.547a.846.846,0,0,0,.348.05.687.687,0,0,0,.2-.149.226.226,0,0,0,0-.249.6.6,0,0,0-.249-.249.474.474,0,0,0-.348-.1" transform="translate(-5.573 -0.905)" fill="#fff"/>
  <path id="Path_3349" data-name="Path 3349" d="M44.719,11.346a.33.33,0,0,1-.348.1c-.1-.05-.1-.249,0-.348.1-.149.249-.2.348-.1.1.05.1.2,0,.348m-.7,1.045c-.1.149-.249.2-.348.1-.1-.05-.1-.249,0-.348.1-.149.249-.2.348-.1.1.05.1.2,0,.348M41.735,6.571c.1-.249.249-.746.249-.746l.249.1a.873.873,0,0,0-.249.2.222.222,0,0,0,.249,0l-.1.249a.224.224,0,0,0-.149-.149.337.337,0,0,0,.149.348q.224.149.3,0c.05-.1-.05-.2-.2-.149,0-.149.05-.2.149-.2a.159.159,0,0,1,.149.149.435.435,0,0,1,.3-.448c.1.2,0,.348-.149.5.1-.05.2-.05.2.05.05.1.05.2-.1.249-.05-.149-.2-.149-.249-.05s0,.2.149.249a.269.269,0,0,0,.4-.1.541.541,0,0,0-.249.05l.149-.3a.377.377,0,0,0,.1.2.313.313,0,0,0,0-.3l.348.2a.31.31,0,0,0-.249.149c.1.05.149,0,.2,0l-.2.3a.38.38,0,0,0-.1-.249.269.269,0,0,0,.1.4q.224.149.3,0c.05-.1-.05-.2-.149-.2,0-.149.05-.2.149-.2.05,0,.1.1.149.2a.482.482,0,0,1,.348-.4.436.436,0,0,1-.249.5c.1-.05.149,0,.2.05a.182.182,0,0,1-.1.249c0-.149-.2-.149-.249-.1s0,.149.149.249c.1.05.2.149.4,0a.3.3,0,0,0-.2-.05l.149-.2c0,.1.05.2.1.2a.631.631,0,0,0,.05-.3l.2.2a5.359,5.359,0,0,1-.547.547ZM44.52,9.754a.176.176,0,0,1,.2-.2c.1,0,.149.05.249.1a.38.38,0,0,1,.1.249.176.176,0,0,1-.2.2c-.1,0-.149-.05-.249-.1-.05-.1-.1-.149-.1-.249m1.045,4.675c0-.1.05-.149.149-.2a.448.448,0,0,1,.249-.05.107.107,0,0,1,.1.1.093.093,0,0,1,0,.149c0,.1-.05.149-.149.2-.149.1-.3.1-.348,0s0-.149,0-.2M40.69,7.367a.258.258,0,0,1-.1.2.174.174,0,0,1-.1.05c-.1,0-.149-.1-.149-.249a.258.258,0,0,1,.1-.2.124.124,0,0,1,.2,0c0,.05.05.1.05.2m1.492-3.084c.1-.149,0-.4.3-.4.149,0,.249.149.448.2a1.648,1.648,0,0,0-.746.2m4.377,3.88c.2.5.547.7.846.547-.647-.05-.1-1.144-.945-1.144h-.149a.679.679,0,0,0-.547-.2,1.02,1.02,0,0,0-.945.995c0,1.492,1.691,1.592,1.691,2.885a.573.573,0,0,1-.6.6c-.3,0-.5-.348-.746-.846a3.9,3.9,0,0,0-.647-.9c.1.05.149.1.249.1a.34.34,0,0,0,.348-.348.537.537,0,0,0-.149-.348.452.452,0,0,0-.348-.149.34.34,0,0,0-.348.348.183.183,0,0,0,.05.149,3.5,3.5,0,0,1-.7-1.194.94.94,0,0,1,.348-.647l.05.05.05-.05a3.273,3.273,0,0,1,.5-.547l.05-.05-.2-.149a.922.922,0,0,0,.1-.348c.05.249.2.4.348.348-.1-.249.1-.6-.05-1.194.149.249.348.348.5.3-.4-.348.1-.8-.4-1.542a.409.409,0,0,0,.348-.05c-.448-.05-.249-.647-1.045-.846.2-.05.3-.149.3-.249-.2.149-.4-.3-1.094-.249a1.01,1.01,0,0,0-.547-.647.988.988,0,0,1-.05.547L40.591,1.149C40.74,1,40.69,1,40.69,1a.154.154,0,0,0,.05.1l1.94,2.387-.448.149a.274.274,0,0,0-.149.249,8.5,8.5,0,0,0-.846.547c-.1.1-.2.149-.1.4.05.1-.1.3.2.149.2-.1.6-.348.647-.2.05.1-.149.149-.3.249-.149.05-.3.149-.249.2,0,.05.149,0,.149.05a.107.107,0,0,0,.1.1c.05,0,.149-.1.149-.1.05.05,0,.3-.05.348a.471.471,0,0,0,.348-.4c0-.149.05-.2.1-.2s.05.149.05.3c.1,0,.249-.2.2-.448.05-.05.1-.1.149-.1s.2.2.448.2a.564.564,0,0,0,.6-.448c0-.1,0-.249-.05-.3a.514.514,0,0,1,.2.4c0,.547-.945.8-1.343,1.144l-.05.05-.547-.1v.1l-.05.1c-.05.149-.149.448-.2.647v.05h.05a2.7,2.7,0,0,0-.547,1.144,2.164,2.164,0,0,0-.348-.3v-.1a.533.533,0,0,0-.1-.3.377.377,0,0,0-.2-.1c-.1,0-.149,0-.2.1l-.05.05a.049.049,0,0,1-.05-.05,3.507,3.507,0,0,1-.448-.348.258.258,0,0,0-.2-.1h-.2c-.05,0-.1.05-.2.1-.05.05-.149.1-.249.2l.149.149.1.1c.05,0,.05-.05.1-.05a.183.183,0,0,1,.149-.05.267.267,0,0,1,.2.149c.05.05.4.547.7.846-.05,0-.05,0-.1.05a2.04,2.04,0,0,1-.547.05c-.149,0-.149-.05-.249.1-.05.05-.1.1-.1.149-.05.05-.1.1,0,.249a5.615,5.615,0,0,1,.547,1.094c.1.249.249.3.448.4a4.807,4.807,0,0,1,.6.348v-.2a.743.743,0,0,0-.348-.149c-.1-.05-.1-.05,0-.05a2.68,2.68,0,0,1,.5.149A2.054,2.054,0,0,0,40.69,9.7a.408.408,0,0,0-.348,0c0,.05,0,.1-.1.1a.107.107,0,0,1-.1-.1c0-.05.1-.1.1-.2s-.149-.149-.249-.149a4.485,4.485,0,0,1-.348-.547c-.05-.1-.05-.149,0-.2.1-.1.348.05.8.1a2.231,2.231,0,0,1,.547.05,1.164,1.164,0,0,0,.995,1.194,1.208,1.208,0,0,1,.846.7c-1.442-.05-1.691.547-1.691,1.094,0,.6.5.6.5,1.045,0,.4-1.243.547-1.592.6a1.107,1.107,0,0,0-.647.249,7.738,7.738,0,0,1-.6.547.344.344,0,0,0,.249,0l.2-.249q.075-.149.149-.149c.05,0,0,.1-.05.149l.05.249c.746.05.746-.2.746-.348,0-.1-.2-.2-.1-.249s.2,0,.3.1.1.2.3.1c0,0,1.592-.647,1.791-.746s.149-.149,0-.249a.565.565,0,0,1-.149-.4c0-.5.3-.647.8-.6v.249c0,.746,1.144,1.492,1.442,1.492.149,0,.3-.1.348.348a5.986,5.986,0,0,1,0,.945.617.617,0,0,1-.4.6c-.249.149-.448.647-.547.8.1.05.2.1.3-.149a.614.614,0,0,1,.249-.4c-.1.249-.149.547-.2.647.3.05.746-.2.746-.4s-.149-.2-.149-.3a.159.159,0,0,1,.149-.149.222.222,0,0,1,.2.149c.149-.05.2-.2.2-.5v-.348a.049.049,0,0,0,.05.05.274.274,0,0,0,.249.149.365.365,0,0,0,.3-.1c.1-.1.2-.2.2-.3v-.05a.3.3,0,0,0-.05-.2.687.687,0,0,0-.2-.149.474.474,0,0,0-.348.1.336.336,0,0,0-.2.3c0-.4-.05-.8-.05-.945,0-.249.05-.348-.05-.348-.1-.05-.149.1-.249.1a.758.758,0,0,1-.448-.647c0-.3.348-.746.348-1.194,0-.149.1-.2.149-.1a1.325,1.325,0,0,0,.3.5c-.1.547.5,1.094.995.7-.249.05-.4-.2-.547-.4h.249a.558.558,0,0,0,.9-.348.741.741,0,0,1-.448.2.9.9,0,0,0,.3-.7c0-1.393-1.691-1.592-1.691-2.835a.771.771,0,0,1,.7-.8.38.38,0,0,1,.249.1.743.743,0,0,0-.149.5c.05.995,1.691.945,1.691,1.442.2-.9-1.045-.7-1.094-1.641" transform="translate(-19.501 -0.503)" fill="#fff"/>
</svg>
