<svg xmlns="http://www.w3.org/2000/svg" xmlns:xlink="http://www.w3.org/1999/xlink" width="172.893" height="29.295" viewBox="0 0 172.893 29.295">
  <defs>
    <linearGradient id="linear-gradient" x1="0.5" x2="1.068" y2="1.123" gradientUnits="objectBoundingBox">
      <stop offset="0" stop-color="#fff"/>
      <stop offset="1" stop-color="#b7cae3"/>
    </linearGradient>
    <linearGradient id="linear-gradient-2" x1="0.334" y1="0.073" x2="1.031" y2="1.107" gradientUnits="objectBoundingBox">
      <stop offset="0" stop-color="#fff"/>
      <stop offset="1" stop-color="#a2b6d1"/>
    </linearGradient>
    <linearGradient id="linear-gradient-3" x1="-1.108" y1="-0.709" x2="1.065" y2="1.103" xlink:href="#linear-gradient"/>
  </defs>
  <g id="Group_3528" data-name="Group 3528" transform="translate(-258.416 -184.478)">
    <g id="Group_2159" data-name="Group 2159" transform="translate(258.416 184.479)">
      <path id="Path_1619" data-name="Path 1619" d="M20679.375-11313.324a17.351,17.351,0,0,1,5.439-.969s4.24-5.357,9.174-1.211,6.445,21.554,6.445,21.554a122.924,122.924,0,0,0-10.053-15.6C20686.834-11313.964,20683.779-11314.752,20679.375-11313.324Z" transform="translate(-20679.375 11323.241)" fill="url(#linear-gradient)"/>
      <path id="Path_1620" data-name="Path 1620" d="M20647.52-11382.488s4.777,7.188-3.648,15.545,6.277,9.992,6.277,9.992-15.254.023-14.094-11.436c0,0-.459-3.494,4.02-5.627A15.542,15.542,0,0,0,20647.52-11382.488Z" transform="translate(-20625.02 11382.488)" fill="url(#linear-gradient-2)"/>
      <path id="Path_1623" data-name="Path 1623" d="M20697.83-11307.594a93.858,93.858,0,0,1,2.4,13.539s-1.449-2.822-4.379-7.4C20694.223-11304.42,20697.83-11307.594,20697.83-11307.594Z" transform="translate(-20679.184 11323.35)" fill="url(#linear-gradient-3)"/>
    </g>
    <g id="Group_2525" data-name="Group 2525" transform="translate(287.835 184.479)">
      <path id="Path_3425" data-name="Path 3425" d="M11.707-14.168a5.278,5.278,0,0,0-2.012-1.449,7.137,7.137,0,0,0-2.5-.391,9.13,9.13,0,0,0-2.4.276,4.507,4.507,0,0,0-1.645.793,3.108,3.108,0,0,0-.943,1.231,4.128,4.128,0,0,0-.3,1.61,3.2,3.2,0,0,0,.3,1.461,2.569,2.569,0,0,0,.92.989,6.131,6.131,0,0,0,1.6.69q.977.287,2.335.563t2.461.6a7.453,7.453,0,0,1,1.874.805,3.462,3.462,0,0,1,1.184,1.2A3.53,3.53,0,0,1,12.995-4a3.49,3.49,0,0,1-1.53,3.059A7.328,7.328,0,0,1,7.245.115a9.421,9.421,0,0,1-3.507-.61A8.436,8.436,0,0,1,.9-2.415l.345-.3a7.657,7.657,0,0,0,2.7,1.863,9.017,9.017,0,0,0,3.324.575,7.073,7.073,0,0,0,3.853-.908,3.045,3.045,0,0,0,1.415-2.749,3.4,3.4,0,0,0-.322-1.552,2.966,2.966,0,0,0-.989-1.093,6.287,6.287,0,0,0-1.7-.782,23.711,23.711,0,0,0-2.438-.6q-1.357-.253-2.4-.541a6.764,6.764,0,0,1-1.771-.736,3.011,3.011,0,0,1-1.092-1.127,3.513,3.513,0,0,1-.368-1.691,4.186,4.186,0,0,1,.4-1.874A3.832,3.832,0,0,1,3-15.306,5.262,5.262,0,0,1,4.8-16.157a8.9,8.9,0,0,1,2.358-.288A7.549,7.549,0,0,1,9.878-16a5.636,5.636,0,0,1,2.128,1.507ZM16.123,0V-16.33h.46V0Zm5.014,0V-16.33h.46V-.46H31.855V0Zm9.407-16.33L37.421-.575,44.275-16.33h.506L37.674,0h-.506L30.061-16.33ZM58.213-.46V0H47.495V-16.33H58.006v.46H47.955v7.291h8.809v.46H47.955V-.46ZM61.686,0V-16.33h6.647a4.057,4.057,0,0,1,1.84.425,4.694,4.694,0,0,1,1.46,1.127,5.374,5.374,0,0,1,.954,1.587,4.935,4.935,0,0,1,.345,1.805,5.575,5.575,0,0,1-.3,1.817,5,5,0,0,1-.851,1.552,4.481,4.481,0,0,1-1.322,1.1,4.085,4.085,0,0,1-1.69.494L72.91,0h-.552l-4.14-6.417H62.146V0Zm.46-6.877h6.348a3.474,3.474,0,0,0,1.656-.391A4.066,4.066,0,0,0,71.4-8.292,4.609,4.609,0,0,0,72.2-9.729a5.072,5.072,0,0,0,.276-1.656,4.48,4.48,0,0,0-.322-1.679,4.7,4.7,0,0,0-.885-1.426,4.466,4.466,0,0,0-1.323-1,3.552,3.552,0,0,0-1.61-.379H62.146ZM97.267-16.1,92.552-2.185,87.814-16.1H86.227L81.42-2.254,76.774-16.1H75.026L80.454,0h1.771l4.738-13.731L91.678,0h1.794L98.9-16.1ZM102.925,0h1.7V-16.1h-1.7Zm19.642-16.1V-3.036L112.194-16.1h-1.4V0h1.7V-13.064L122.843,0h1.4V-16.1ZM141.749-2.622A6.97,6.97,0,0,1,137.54-1.38a6.6,6.6,0,0,1-6.877-6.67,6.59,6.59,0,0,1,6.9-6.67,6.566,6.566,0,0,1,4.853,1.886l1.058-1.081a7.933,7.933,0,0,0-5.98-2.323c-4.922,0-8.51,3.473-8.51,8.188S132.572.138,137.471.138a8.884,8.884,0,0,0,5.911-2.047V-8.05h-1.633Z" transform="translate(0 22)" fill="#fff"/>
    </g>
  </g>
</svg>
